<?xml version="1.0" standalone="no"?>
<!DOCTYPE svg PUBLIC "-//W3C//DTD SVG 1.1//EN" "http://www.w3.org/Graphics/SVG/1.1/DTD/svg11.dtd" >
<svg xmlns="http://www.w3.org/2000/svg">
<metadata></metadata>
<defs>
<font id="in_the_knowregular" horiz-adv-x="2048" >
<font-face units-per-em="2048" ascent="1847" descent="-201" />
<missing-glyph horiz-adv-x="409" />
<glyph />
<glyph />
<glyph unicode="&#xd;" />
<glyph unicode=" "  horiz-adv-x="409" />
<glyph unicode="&#x09;" horiz-adv-x="409" />
<glyph unicode="&#xa0;" horiz-adv-x="409" />
<glyph unicode="!" horiz-adv-x="198" d="M41 43q0 14 19.5 35.5t29.5 21.5q24 0 48 -14.5t24 -32.5q0 -26 -21 -43.5t-43 -17.5q-18 0 -37.5 19t-19.5 32zM59 1692q2 0 12.5 3t18.5 3q9 0 21.5 -9t15.5 -18q8 -64 11.5 -192t4.5 -320.5t2 -249.5l7 -385q0 -5 -1.5 -30t-3 -60t-2.5 -55q0 -2 -1 -24t-1.5 -32 t-2 -32.5t-4.5 -35t-7 -28t-10.5 -24t-14.5 -10.5h-32v1429q0 3 -13 70z" />
<glyph unicode="'" horiz-adv-x="153" d="M33 1798q0 11 7 20t23 9t27 -16.5t15.5 -40.5t6 -39.5t1.5 -22.5q0 -11 -7 -36t-14 -40h-29q-30 138 -30 166z" />
<glyph unicode="," horiz-adv-x="161" d="M-23 -59q36 42 54 86q1 2 -1 20.5t-3.5 37.5t6.5 35.5t26 16.5q19 0 45.5 -14.5t26.5 -32.5q0 -34 -45 -97.5t-61 -74.5h-33q-3 3 -7.5 11.5t-7.5 11.5z" />
<glyph unicode="." horiz-adv-x="198" d="M41 43q0 14 19.5 35.5t29.5 21.5q24 0 48 -14.5t24 -32.5q0 -26 -21 -43.5t-43 -17.5q-18 0 -37.5 19t-19.5 32z" />
<glyph unicode="?" horiz-adv-x="421" d="M53 1632q0 25 44 57t86.5 51t49.5 19q68 0 115 -59.5t47 -116.5q0 -24 -40.5 -57t-87.5 -63.5t-54 -43.5q-14 -27 -18 -90q-1 -33 -1.5 -86t0 -96t1 -81.5t0.5 -39.5v-356v-236q0 -10 6 -37.5t6 -36.5v-6q0 -19 -1.5 -28.5t-14 -21.5t-37.5 -19q-9 2 -13.5 21.5t-8 55 t-5.5 48.5l-6 704q0 45 2 70q7 51 2.5 94t2.5 94.5t32 87.5q9 12 37.5 27.5t55 29t48 38.5t21.5 55q0 33 -21 60.5t-43 27.5q-33 0 -64 -16t-49 -35.5t-35 -35.5t-26 -16q-10 0 -20.5 12.5t-10.5 24.5zM139 49q0 16 26 36.5t42 20.5q23 0 35 -16.5t12 -30.5q0 -29 -21.5 -42 t-42.5 -13t-36 12.5t-15 32.5z" />
<glyph unicode="A" horiz-adv-x="507" d="M39 55q0 197 162 1250q4 27 10 83.5t13 107t18 101.5q2 10 18.5 27.5t26.5 17.5q19 0 32 -22.5t13 -36.5l135 -1522v-18t-1 -14t-1 -10.5t-3 -8t-3.5 -6t-6 -5t-6.5 -4l-9 -4.5t-11 -5q-20 89 -37.5 225.5t-25.5 231t-24.5 314.5t-23.5 302q-15 3 -46 -1.5t-42 -4.5 q-17 -86 -33 -180.5t-26 -159t-24 -183.5t-18.5 -162t-20 -191.5t-19.5 -182.5q0 -6 -11 -17t-14 -16q-22 57 -22 94zM236 1108q13 2 31.5 4t27 3.5t12.5 4.5l-20 297l-51 -264v-45z" />
<glyph unicode="B" horiz-adv-x="432" d="M61 170l7 1032q6 68 6 128v29q-2 72 -6 130q-4 67 -4 103q0 38 11 59q11 22 38 22q8 0 19 -6t18 -6q8 0 3.5 6t2.5 6q17 0 82 -26q29 -13 57.5 -79.5t28.5 -113.5q0 -74 -28 -157t-93 -132q87 -55 134.5 -231.5t47.5 -351.5q0 -56 -8 -126.5t-28.5 -155.5t-50.5 -157 t-79.5 -126.5t-109.5 -67.5h-21q-8 26 -12.5 62.5t-8.5 87t-6 71.5zM123 487l14 -464q61 36 103 156.5t56.5 228t14.5 184.5q0 68 -9 149.5t-28.5 169t-57 149t-87.5 70.5v-270q0 -1 -2 -80q-1 -78 -3 -168q-1 -54 -1 -88v-37zM129 1192q45 16 83 101.5t38 154.5 q0 5 -2.5 22t-1.5 21q-5 23 -6.5 30.5t-10.5 32t-20 35.5t-32 21q-18 8 -39 8h-9v-426z" />
<glyph unicode="C" horiz-adv-x="425" d="M49 225v951q0 6 4 26t4 29q27 412 155 456q15 5 30 5q29 0 89 -30.5t60 -68.5q0 -9 -3 -14t-3 -10q-2 0 -14 -3t-19 -3q-6 0 -13.5 6.5t-17.5 20.5t-12 16q-4 7 -49 30q-44 -19 -63 -53q-37 -67 -58.5 -201.5t-21.5 -224.5v-848q0 -19 1 -45.5t8 -79.5t19 -94.5t37 -73.5 t58 -32q5 0 15.5 4.5t26.5 12.5t27 13q1 -1 3.5 -3t3 -3t1 -4t0.5 -8q0 -11 -17.5 -33t-27.5 -22q-8 0 -33.5 -3.5t-33.5 -3.5q-43 0 -75 32.5t-48.5 81t-24.5 94t-8 83.5z" />
<glyph unicode="D" horiz-adv-x="479" d="M48 116v10q0 37 4 91q4 61 3 80l19 500v176q0 8 3 154t3 153v248q0 7 -9.5 69.5t-9.5 69.5q0 5 15 35q70 -10 137 -33q61 -21 106.5 -65t72 -102t40.5 -113t21 -115q0 -1 -0.5 -4.5t-1 -11t-1 -21.5t0.5 -41t2 -63l-43 -365q0 -13 -33 -153.5t-58 -225.5q-5 -17 -42 -95 t-94.5 -163.5t-94.5 -85.5h-33q-7 31 -7 71zM117 350q0 -112 8 -200q7 9 17 27.5t12 21.5q65 74 145 413t80 512q0 35 -0.5 59t-3 64t-6.5 69.5t-12.5 68.5t-20.5 67.5t-30 59.5t-41 52.5t-54.5 38.5t-69.5 25l-6 -715z" />
<glyph unicode="E" horiz-adv-x="395" d="M41 158l74 841v224q0 282 12 415q26 6 108 11.5t105 5.5q9 0 20 -16.5t11 -24.5q-32 -16 -66 -19t-55.5 1.5t-42 2.5t-31.5 -16v-346q10 -10 25 -10q7 0 25 3t26 3q32 0 63 -21q-3 -18 -22.5 -24t-47.5 -9t-42 -12q-4 7 -29 7v-273l-59 -737q-1 -13 -1 -26q0 -86 54 -122 q52 -35 164 -35q21 0 45 1q-10 -15 -43 -31.5t-64 -16.5h-43q-26 0 -84 22t-69 42q-17 31 -24 56.5t-8 41.5t-1 62z" />
<glyph unicode="F" horiz-adv-x="344" d="M51 29l6 336l25 415v146q0 7 6 94.5t6 95.5v516q0 88 148 88q23 0 47 -12v-22q-8 -2 -52.5 -14t-68.5 -23v-404h125l14 -14q-5 -17 -30.5 -24t-62.5 -9.5t-42 -3.5q-3 -1 -4.5 -6t-3.5 -6q-1 -49 -6 -137.5t-10 -156.5t-5 -71v-215q0 -6 -6 -32t-6 -33v-410 q0 -57 -14 -129q-3 0 -31 -14h-20q-15 30 -15 45z" />
<glyph unicode="G" horiz-adv-x="493" d="M44 349v22.5v34.5q1 41 1 45l6 579q0 40 3 106t6 117.5t3 55.5q0 34 5.5 85t22 118t40 123t65.5 95t93 39q68 0 120 -75.5t52 -132.5v-21q-6 -3 -20 -10.5t-21 -9.5q-9 9 -28.5 60.5t-46.5 92.5t-62 41q-32 0 -64.5 -49t-44.5 -82q-40 -104 -45 -358q-1 -91 -5 -172 t-5 -115l-6 -369q0 -51 1.5 -100.5t9 -155.5t29 -171.5t54.5 -65.5q7 0 21.5 -6.5t21.5 -6.5q41 0 76.5 57t35.5 87v315q-19 6 -36 5.5t-44 -4t-32 -3.5q-8 0 -16.5 16.5t-10.5 30.5q6 7 6 13q25 0 81 10t59 10q9 0 24 -7t21 -13q12 -25 23.5 -119.5t11.5 -151.5 q0 -45 -6.5 -86t-22 -85.5t-47.5 -77.5t-78 -46l-14 -12q-15 0 -46 -3t-36 -3q-23 0 -59 31t-44 45q-12 19 -21.5 44t-14.5 57t-8.5 56t-5 64t-2.5 56z" />
<glyph unicode="H" horiz-adv-x="458" d="M41 49v907l20 746q2 0 10 3t17 3q24 0 37 -20q-4 -139 -4 -424h57q7 0 14 6t15 6q7 0 13 3t13 3q3 0 25 -1.5t44 -1.5t38 3v264q0 102 -10 178q3 9 14 18t21 9q31 0 38 -36q4 -22 4 -53q1 -20 -1 -43q-1 -15 -2 -32q0 -48 10 -106v-5q-1 -4 -1.5 -17t-0.5 -35v-28v-41 q0 -46 2 -108q-13 -35 -13 -53v-160q0 -5 -3 -54t-6.5 -112.5t-4.5 -99.5q-6 -227 -6 -369v-65q1 -39 3 -107q2 -51 2 -91q0 -42 -2 -72q-6 -56 -32 -56q-7 0 -14.5 3t-13.5 3v742l16 444q0 21 -27 21q-15 0 -80.5 -7.5t-111.5 -15.5l-12 -924q12 -37 12 -86q0 -4 -2.5 -31 t-4.5 -63q-1 -24 -1 -45v-20q-2 -5 -12 -14t-19 -13h-27q-14 28 -14 47z" />
<glyph unicode="I" horiz-adv-x="194" d="M57 590l23 1012q-12 50 -12 71q0 13 16 29q7 -3 20 -4.5t17 -3.5q26 -8 26 -49q-3 -363 -6.5 -561t-5 -238.5t-4 -90t-4.5 -128.5v-37q0 -86 3 -276q1 -86 1 -152q0 -114 -4 -164q-1 -18 -16.5 -31.5t-24.5 -13.5q-7 0 -12 4t-11 4z" />
<glyph unicode="J" horiz-adv-x="221" d="M-88 -184q37 38 65 78t44.5 83t27 78t14.5 83t5.5 76t1.5 79.5v71.5l24 823v532q4 0 16 3t19 3q16 -8 24 -23t8.5 -23.5t0.5 -26.5l-25 -1331q-1 -52 -2 -78t-6 -78t-13 -84t-23.5 -77.5t-36.5 -77t-54.5 -65t-75.5 -57.5q-8 5 -14 11z" />
<glyph unicode="K" horiz-adv-x="581" d="M66 133v1591q15 15 34 15q22 0 29 -33.5t10 -101.5t11 -109q35 37 95.5 109.5t102 122t47.5 49.5q9 0 20 -14.5t11 -26.5q0 -24 -119 -162.5t-119 -153.5q0 -8 23.5 -99.5t64 -237t78.5 -267.5q45 -147 134.5 -422t125.5 -389q-4 -6 -45 -27q-41 57 -51 86 q-148 464 -245.5 801.5t-122.5 417.5q-4 -38 -6.5 -75t-3.5 -85t-1 -70.5v-87.5v-81v-654q0 -134 -2 -202q-19 -15 -51 -19q-20 34 -20 125z" />
<glyph unicode="L" horiz-adv-x="346" d="M47 1755q7 -3 25 -4.5t24 -3.5q11 -20 14 -43.5t2 -57t-1 -44.5q0 -15 4 -50.5t4 -42.5v-1468q66 2 100 2q8 0 33 -6t37 -14v-21q-168 -33 -195 -33q-16 0 -25 3t-12 11.5t-3 16t1.5 26t1.5 31.5l13 727z" />
<glyph unicode="M" horiz-adv-x="643" d="M45 1724q0 9 4 19t4 12q8 -2 36 -1t30 -7q50 -55 103 -153t83 -181q28 31 74 122t80.5 165t40.5 74q9 0 27 -9.5t28 -19.5q1 -27 15 -229q13 -189 12 -291v-15l-19 -1116q0 -2 -5.5 -14.5t-15 -28.5t-18.5 -20h-14q-16 16 -20 38t-1 59.5t3 39.5q-1 46 -1 105q0 89 2 209 q3 199 9 480.5t8 460.5q-13 24 -13 74q1 5 1 11v20q0 44 -6 69q-9 -4 -14 -10t-10 -19t-7 -18q-14 -30 -40 -84.5t-46.5 -99.5t-36.5 -86h-29q-28 36 -87 167t-99 187l33 -1601q-14 -65 -66 -70l-27 1442z" />
<glyph unicode="N" horiz-adv-x="489" d="M61 100v1575q19 19 31 19q5 0 12.5 -1.5t15.5 -3.5t11 -3q21 -43 41 -113.5t29 -110t29 -142t22 -110.5q15 -73 27.5 -161t27 -212.5t21.5 -179.5l45 834q3 67 3 113q0 76 -9 94q14 14 26 14q7 0 20.5 -3t20.5 -3v-363l-24 -401l-7 -823q1 -8 1 -25t-2 -41t-13.5 -41.5 t-30.5 -17.5q-5 0 -13 8t-13 16l-6 9q-21 163 -48 428t-54 476.5t-66 405.5q-1 2 -2 5.5t-4 8t-9 9.5v-1321q-33 -33 -47 -33q-9 0 -13.5 3t-6.5 3q-15 62 -15 88z" />
<glyph unicode="O" horiz-adv-x="524" d="M20 360q0 4 5.5 48.5t11.5 100.5t8 85q1 14 1 37.5t-1 57t-1 57.5t1 38q2 31 19 136t20 167q4 59 18 191.5t19 224.5q4 67 74 122.5t133 55.5q43 0 74.5 -24.5t48 -59t26 -79.5t11.5 -78q1 -22 1 -42v-20l-36 -960q0 -12 -12.5 -104.5t-22.5 -141.5q-13 -61 -65 -120 t-115 -66q-1 -1 -2.5 -6t-10.5 -5h-41q-43 0 -77.5 49t-52 118.5t-26 127t-8.5 90.5zM98 356v-20q0 -54 13 -125q16 -84 39 -135q7 -16 30.5 -27.5t42.5 -11.5q33 0 60 30t43.5 80.5t28.5 102.5t18 111.5t8.5 91t3.5 55.5l31 852q0 15 -3.5 50.5t-11 86.5t-25.5 88t-42 37 q-13 0 -53 -18.5t-58 -38.5q-14 -15 -20.5 -33.5t-9.5 -44t-5 -33.5q-26 -100 -30 -250q-2 -39 -7.5 -91t-10.5 -88t-5 -40z" />
<glyph unicode="P" horiz-adv-x="432" d="M45 1700q0 25 16.5 37t54 20.5t44.5 11.5q53 -4 96.5 -37.5t68 -83t37.5 -101t13 -97.5q0 -54 -28.5 -122t-83.5 -124t-118 -63q-4 -3 -4 -19v-428q0 -5 -3.5 -120.5t-9 -286.5t-7.5 -244q0 -11 -14.5 -26t-28.5 -15q-8 0 -16.5 4t-10.5 4l12 471q1 37 7 126t6 136 l-6 652q0 67 -9 256q-1 5 -8.5 23.5t-7.5 25.5zM131 1677l6 -491q79 57 118.5 123t39.5 153q0 10 -7 44.5t-20 79t-36 78.5t-50 34q-9 0 -51 -21z" />
<glyph unicode="Q" horiz-adv-x="610" d="M51 412q0 46 11 132.5t12 94.5q2 18 0 56.5t0 54.5q11 92 20 255t23.5 303.5t44.5 258.5q6 23 53.5 76.5t81.5 60.5q40 12 82 12q45 0 80 -17t56.5 -43.5t36.5 -65t22 -74t9 -78.5q2 -35 2 -61q0 -6 -1 -12q0 -29 -2 -60l-62 -834q-1 -14 -8.5 -53.5t-17 -85.5t-19 -89.5 t-15.5 -73.5l-7 -30q0 -6 5.5 -14t14 -16t20.5 -17t23.5 -17t24.5 -16t21.5 -13t17.5 -10l8 -5q-23 -23 -43 -23q-16 0 -48.5 17t-52.5 30.5t-30 20.5q-29 -33 -77 -59.5t-83 -26.5q-6 0 -29 6t-30 6q-29 0 -37 8q-5 4 -18.5 14.5t-23.5 19t-14 15.5q-11 16 -15.5 35 t-7 45.5t-5.5 42.5q-6 25 -14.5 109.5t-8.5 120.5zM123 356q0 -29 4.5 -71.5t16.5 -99.5t39 -95.5t65 -38.5q6 0 13.5 2.5t10.5 -2.5q25 13 57.5 39.5t32.5 40.5q0 7 -49 86.5t-49 87.5t3 11.5t3 5.5l13 4q19 0 44.5 -24.5t47 -50.5t26.5 -28q11 30 18 56t12 51.5t7 40 t5.5 44.5t5.5 42q8 65 16.5 173t13 183.5t4.5 85.5l19 408q1 17 2 37v17q0 19 -1 49q-1 45 -8 83.5t-19 77.5t-36 61.5t-57 22.5q-26 0 -48.5 -9t-39.5 -27t-31 -37t-24 -48.5t-17 -50.5t-12.5 -54t-8 -48.5t-6 -44t-3.5 -31.5q-6 -46 -12.5 -136t-10.5 -114 q-16 -114 -25 -318q-3 -74 -9 -167.5t-9.5 -151.5t-3.5 -62z" />
<glyph unicode="R" horiz-adv-x="436" d="M37 49v451l18 407l31 361v241v17v36.5t1.5 29.5t5 26t10 19.5t16.5 16.5t24.5 10.5t34 7t45.5 1.5q10 0 90 -51q15 -10 52.5 -81.5t37.5 -119.5v-155q0 -37 -16.5 -93t-45 -114.5t-75.5 -107t-100 -62.5q51 -184 88.5 -366t63 -271.5t79.5 -183.5q13 -19 65.5 -62 t86.5 -43q12 -12 12 -20q-30 -15 -49 -15q-141 0 -229 229q-30 78 -54 195q-17 88 -57 251.5t-51 215.5l-23 -551v-221q0 -19 -32 -51h-21q-8 16 -8 53zM125 924q98 41 151.5 167.5t53.5 260.5q0 84 -34 162t-103 92q-30 -10 -39 -7l-7 -362q-15 -128 -22 -313z" />
<glyph unicode="S" horiz-adv-x="436" d="M33 12q1 1 4.5 5t6 6t7 4t10.5 2q7 0 41 -15.5t41 -15.5q39 0 69.5 13.5t49 32t32 50t19.5 53t9.5 57t3.5 47v36.5q0 220 -77 490t-188 528q-9 22 -15.5 68.5t-6.5 66.5q0 45 13 99.5t38.5 109.5t72.5 92t107 37q40 0 75.5 -37.5t35.5 -69.5q0 -10 -11 -19.5t-22 -9.5 q-15 0 -23.5 13.5t-11.5 30t-16 30t-37 13.5q-36 0 -67.5 -37t-49 -87t-27.5 -92t-10 -59q0 -54 25 -129t69.5 -181.5t65.5 -172.5q2 -6 15 -37t18 -49q107 -402 107 -611q0 -325 -283 -325h-6q-16 0 -25 1t-22 6.5t-22 19t-15 36.5z" />
<glyph unicode="T" horiz-adv-x="464" d="M33 1630q0 5 4 14.5t8 12.5q234 39 371 39q7 0 37 -15v-26q-6 -6 -46 -19.5t-47 -13.5h-79l-13 -10l25 -328v-995q0 -4 -1.5 -54.5t-3.5 -120t-3 -110.5q-27 -22 -39 -22q-18 0 -26.5 18t-9 40.5t1.5 40.5t3 21l6 1256q0 35 -3 73t-9 96.5t-8 78.5q-5 4 -45 4 q-7 0 -36 -3t-36 -3q-12 0 -51 26z" />
<glyph unicode="U" horiz-adv-x="395" d="M33 1616q0 33 39 33q6 0 11 -5t8.5 -11t4.5 -7q1 -13 8 -63.5t7 -57.5v-1261q0 -22 2 -46.5t9 -67t26.5 -70t48.5 -27.5q18 0 31 14t20 38.5t11.5 51t5.5 58.5t1 54.5t-1 44.5t-1 23v207q0 5 -1.5 24.5t-3.5 45t-3 39.5q-2 31 -2 59v14q0 34 2 75t2 42v248q0 8 3 84t3 84 v260q0 193 39 193q11 0 22 -11t17 -22v-1489q0 -39 -16 -86t-49.5 -85t-73.5 -38q-41 0 -72 18t-47.5 50t-27 66.5t-13 76t-2.5 70.5t2 58t2 30q-4 186 -4 380t2 346t2 156q-1 24 1 116q1 55 1 95v45q-1 22 -7.5 82t-6.5 66z" />
<glyph unicode="V" horiz-adv-x="442" d="M18 1677q2 2 4 5t3.5 5t5 3.5t8.5 1.5q6 0 51 -15q30 -152 56 -337.5t55 -431.5t45 -363l78 1024q9 63 9 100q0 12 -1 21q2 2 5 6q18 13 25 14q14 0 33 -14.5t19 -26.5q0 -5 -5.5 -43t-12 -88t-9.5 -76q-2 -16 -3 -51.5t-3 -56.5q-2 -32 -12 -149.5t-13 -180.5 q-2 -48 -10 -163t-12 -179q-3 -42 -10 -121t-10.5 -125t-5.5 -128v-36q0 -58 5 -96q1 -13 -4.5 -46.5t-5.5 -55.5v-62q-2 -9 -16.5 -22t-24.5 -13q-45 0 -76 394q-21 248 -67 653q-36 339 -101 653z" />
<glyph unicode="W" horiz-adv-x="608" d="M35 1655v20q3 0 8 3t14 3q5 0 11.5 -3.5t15 -9.5t10.5 -7q24 -122 43 -316.5t41 -505.5t31 -413q4 4 6 10q4 56 14.5 160t16.5 174q2 10 10 21.5t16 11.5q22 0 42 -15.5t20 -29.5v-178q0 -5 5.5 -49.5t12.5 -106.5t10 -102q16 36 19 77q6 69 17.5 201.5t19.5 224t8 97.5 l80 784q1 0 13 6t20 6q17 0 28 -17.5t11 -25.5l-164 -1624q0 -13 -7 -42t-16 -44q-1 0 -11.5 -5t-17.5 -9h-20q-20 53 -29.5 119.5t-15.5 153.5t-12 130l-9 11l-22 -394q-1 -13 -11 -22.5t-18 -13t-12 -3.5q-19 0 -29 15q-14 105 -37 355t-28 400q-5 133 -15.5 264t-25 280 t-21.5 231q-2 21 -7.5 63t-10 75.5t-4.5 39.5z" />
<glyph unicode="X" horiz-adv-x="577" d="M27 -12v69l213 1018l-152 629q1 1 5.5 7.5t9.5 9.5t12 3q20 0 43 -14q100 -391 121 -467l133 522q18 0 44 -14t21 -35l-151 -645l225 -1014q-10 -34 -41 -34q-20 0 -31 14q-39 156 -103 443.5t-91 402.5q-8 -8 -11 -17q-15 -76 -81 -377l-27 -155q-28 -155 -55.5 -257 t-51.5 -102q-8 0 -17.5 5.5t-14.5 7.5z" />
<glyph unicode="Y" horiz-adv-x="489" d="M-2 49v31l14 14q23 -6 39.5 -24.5t24.5 -37t24.5 -33.5t40.5 -15q6 0 29.5 6t30.5 6q45 0 82 52.5t39 90.5q7 113 10 189l12 628q2 17 5.5 72t6.5 86l-4 41q-61 -61 -108 -61q-29 0 -62 15t-49 42q-17 30 -40 99.5t-23 111.5q0 60 14 242q0 1 0.5 2.5t1.5 2.5t4.5 2 t7.5 1q17 0 31 -24.5t14 -39.5v-205q0 -46 32.5 -117t66.5 -71q29 0 53 40t36 91.5t18 93.5t5 52q-1 22 2 54.5t8 77t7 66.5q2 0 10.5 3t15.5 3q26 -13 37 -26q1 -18 3 -50t3.5 -56.5t1.5 -30.5q0 -3 -4.5 -71.5t-10 -161.5t-7.5 -150q-7 -236 -7 -397q0 -107 3 -181v-20 v-44q-2 -44 -2 -59v-71.5t-1.5 -83t-6.5 -69.5t-17 -78t-31 -62q-10 -17 -66.5 -50.5t-84.5 -33.5q-4 0 -38.5 -6.5t-43.5 -6.5q-51 0 -89 38.5t-38 82.5z" />
<glyph unicode="Z" horiz-adv-x="462" d="M29 55q0 7 10 61.5t27.5 142t35.5 169.5q8 39 29 137.5t38 176.5t32 137q74 278 92 348q76 296 76 305q0 11 -1.5 17t-6 8.5t-7.5 3t-10.5 -0.5t-11.5 -1l-137 -13q-16 0 -34.5 2t-39.5 11.5t-21 25.5q0 17 15 27h21q48 0 138 6l111 8q57 0 57 -67q0 -8 -15 -81 t-39.5 -178t-45.5 -178q-19 -69 -38.5 -151t-44 -192.5t-32.5 -143.5q-51 -217 -71 -314.5t-29.5 -158t-20.5 -117.5q29 0 79.5 3.5t90.5 7t43 3.5h8.5h8t7 -1t8 -3t8.5 -6t12.5 -10t15.5 -14q-17 -17 -20 -19q-45 -9 -127.5 -17.5t-133.5 -8.5q-45 0 -61 18t-16 57z" />
<glyph unicode="[" />
<glyph unicode="\" />
<glyph unicode="]" />
<glyph unicode="^" />
<glyph unicode="_" />
<glyph unicode="`" />
<glyph unicode="a" horiz-adv-x="507" d="M39 55q0 197 162 1250q4 27 10 83.5t13 107t18 101.5q2 10 18.5 27.5t26.5 17.5q19 0 32 -22.5t13 -36.5l135 -1522v-18t-1 -14t-1 -10.5t-3 -8t-3.5 -6t-6 -5t-6.5 -4l-9 -4.5t-11 -5q-20 89 -37.5 225.5t-25.5 231t-24.5 314.5t-23.5 302q-15 3 -46 -1.5t-42 -4.5 q-17 -86 -33 -180.5t-26 -159t-24 -183.5t-18.5 -162t-20 -191.5t-19.5 -182.5q0 -6 -11 -17t-14 -16q-22 57 -22 94zM236 1108q13 2 31.5 4t27 3.5t12.5 4.5l-20 297l-51 -264v-45z" />
<glyph unicode="b" horiz-adv-x="432" d="M61 170l7 1032q6 68 6 128v29q-2 72 -6 130q-4 67 -4 103q0 38 11 59q11 22 38 22q8 0 19 -6t18 -6q8 0 3.5 6t2.5 6q17 0 82 -26q29 -13 57.5 -79.5t28.5 -113.5q0 -74 -28 -157t-93 -132q87 -55 134.5 -231.5t47.5 -351.5q0 -56 -8 -126.5t-28.5 -155.5t-50.5 -157 t-79.5 -126.5t-109.5 -67.5h-21q-8 26 -12.5 62.5t-8.5 87t-6 71.5zM123 487l14 -464q61 36 103 156.5t56.5 228t14.5 184.5q0 68 -9 149.5t-28.5 169t-57 149t-87.5 70.5v-270q0 -1 -2 -80q-1 -78 -3 -168q-1 -54 -1 -88v-37zM129 1192q45 16 83 101.5t38 154.5 q0 5 -2.5 22t-1.5 21q-5 23 -6.5 30.5t-10.5 32t-20 35.5t-32 21q-18 8 -39 8h-9v-426z" />
<glyph unicode="c" horiz-adv-x="425" d="M49 225v951q0 6 4 26t4 29q27 412 155 456q15 5 30 5q29 0 89 -30.5t60 -68.5q0 -9 -3 -14t-3 -10q-2 0 -14 -3t-19 -3q-6 0 -13.5 6.5t-17.5 20.5t-12 16q-4 7 -49 30q-44 -19 -63 -53q-37 -67 -58.5 -201.5t-21.5 -224.5v-848q0 -19 1 -45.5t8 -79.5t19 -94.5t37 -73.5 t58 -32q5 0 15.5 4.5t26.5 12.5t27 13q1 -1 3.5 -3t3 -3t1 -4t0.5 -8q0 -11 -17.5 -33t-27.5 -22q-8 0 -33.5 -3.5t-33.5 -3.5q-43 0 -75 32.5t-48.5 81t-24.5 94t-8 83.5z" />
<glyph unicode="d" horiz-adv-x="479" d="M48 116v10q0 37 4 91q4 61 3 80l19 500v176q0 8 3 154t3 153v248q0 7 -9.5 69.5t-9.5 69.5q0 5 15 35q70 -10 137 -33q61 -21 106.5 -65t72 -102t40.5 -113t21 -115q0 -1 -0.5 -4.5t-1 -11t-1 -21.5t0.5 -41t2 -63l-43 -365q0 -13 -33 -153.5t-58 -225.5q-5 -17 -42 -95 t-94.5 -163.5t-94.5 -85.5h-33q-7 31 -7 71zM117 350q0 -112 8 -200q7 9 17 27.5t12 21.5q65 74 145 413t80 512q0 35 -0.5 59t-3 64t-6.5 69.5t-12.5 68.5t-20.5 67.5t-30 59.5t-41 52.5t-54.5 38.5t-69.5 25l-6 -715z" />
<glyph unicode="e" horiz-adv-x="395" d="M41 158l74 841v224q0 282 12 415q26 6 108 11.5t105 5.5q9 0 20 -16.5t11 -24.5q-32 -16 -66 -19t-55.5 1.5t-42 2.5t-31.5 -16v-346q10 -10 25 -10q7 0 25 3t26 3q32 0 63 -21q-3 -18 -22.5 -24t-47.5 -9t-42 -12q-4 7 -29 7v-273l-59 -737q-1 -13 -1 -26q0 -86 54 -122 q52 -35 164 -35q21 0 45 1q-10 -15 -43 -31.5t-64 -16.5h-43q-26 0 -84 22t-69 42q-17 31 -24 56.5t-8 41.5t-1 62z" />
<glyph unicode="f" horiz-adv-x="344" d="M51 29l6 336l25 415v146q0 7 6 94.5t6 95.5v516q0 88 148 88q23 0 47 -12v-22q-8 -2 -52.5 -14t-68.5 -23v-404h125l14 -14q-5 -17 -30.5 -24t-62.5 -9.5t-42 -3.5q-3 -1 -4.5 -6t-3.5 -6q-1 -49 -6 -137.5t-10 -156.5t-5 -71v-215q0 -6 -6 -32t-6 -33v-410 q0 -57 -14 -129q-3 0 -31 -14h-20q-15 30 -15 45z" />
<glyph unicode="g" horiz-adv-x="493" d="M44 349v22.5v34.5q1 41 1 45l6 579q0 40 3 106t6 117.5t3 55.5q0 34 5.5 85t22 118t40 123t65.5 95t93 39q68 0 120 -75.5t52 -132.5v-21q-6 -3 -20 -10.5t-21 -9.5q-9 9 -28.5 60.5t-46.5 92.5t-62 41q-32 0 -64.5 -49t-44.5 -82q-40 -104 -45 -358q-1 -91 -5 -172 t-5 -115l-6 -369q0 -51 1.5 -100.5t9 -155.5t29 -171.5t54.5 -65.5q7 0 21.5 -6.5t21.5 -6.5q41 0 76.5 57t35.5 87v315q-19 6 -36 5.5t-44 -4t-32 -3.5q-8 0 -16.5 16.5t-10.5 30.5q6 7 6 13q25 0 81 10t59 10q9 0 24 -7t21 -13q12 -25 23.5 -119.5t11.5 -151.5 q0 -45 -6.5 -86t-22 -85.5t-47.5 -77.5t-78 -46l-14 -12q-15 0 -46 -3t-36 -3q-23 0 -59 31t-44 45q-12 19 -21.5 44t-14.5 57t-8.5 56t-5 64t-2.5 56z" />
<glyph unicode="h" horiz-adv-x="458" d="M41 49v907l20 746q2 0 10 3t17 3q24 0 37 -20q-4 -139 -4 -424h57q7 0 14 6t15 6q7 0 13 3t13 3q3 0 25 -1.5t44 -1.5t38 3v264q0 102 -10 178q3 9 14 18t21 9q31 0 38 -36q4 -22 4 -53q1 -20 -1 -43q-1 -15 -2 -32q0 -48 10 -106v-5q-1 -4 -1.5 -17t-0.5 -35v-28v-41 q0 -46 2 -108q-13 -35 -13 -53v-160q0 -5 -3 -54t-6.5 -112.5t-4.5 -99.5q-6 -227 -6 -369v-65q1 -39 3 -107q2 -51 2 -91q0 -42 -2 -72q-6 -56 -32 -56q-7 0 -14.5 3t-13.5 3v742l16 444q0 21 -27 21q-15 0 -80.5 -7.5t-111.5 -15.5l-12 -924q12 -37 12 -86q0 -4 -2.5 -31 t-4.5 -63q-1 -24 -1 -45v-20q-2 -5 -12 -14t-19 -13h-27q-14 28 -14 47z" />
<glyph unicode="i" horiz-adv-x="194" d="M57 590l23 1012q-12 50 -12 71q0 13 16 29q7 -3 20 -4.5t17 -3.5q26 -8 26 -49q-3 -363 -6.5 -561t-5 -238.5t-4 -90t-4.5 -128.5v-37q0 -86 3 -276q1 -86 1 -152q0 -114 -4 -164q-1 -18 -16.5 -31.5t-24.5 -13.5q-7 0 -12 4t-11 4z" />
<glyph unicode="j" horiz-adv-x="221" d="M-88 -184q37 38 65 78t44.5 83t27 78t14.5 83t5.5 76t1.5 79.5v71.5l24 823v532q4 0 16 3t19 3q16 -8 24 -23t8.5 -23.5t0.5 -26.5l-25 -1331q-1 -52 -2 -78t-6 -78t-13 -84t-23.5 -77.5t-36.5 -77t-54.5 -65t-75.5 -57.5q-8 5 -14 11z" />
<glyph unicode="k" horiz-adv-x="581" d="M66 133v1591q15 15 34 15q22 0 29 -33.5t10 -101.5t11 -109q35 37 95.5 109.5t102 122t47.5 49.5q9 0 20 -14.5t11 -26.5q0 -24 -119 -162.5t-119 -153.5q0 -8 23.5 -99.5t64 -237t78.5 -267.5q45 -147 134.5 -422t125.5 -389q-4 -6 -45 -27q-41 57 -51 86 q-148 464 -245.5 801.5t-122.5 417.5q-4 -38 -6.5 -75t-3.5 -85t-1 -70.5v-87.5v-81v-654q0 -134 -2 -202q-19 -15 -51 -19q-20 34 -20 125z" />
<glyph unicode="l" horiz-adv-x="346" d="M47 1755q7 -3 25 -4.5t24 -3.5q11 -20 14 -43.5t2 -57t-1 -44.5q0 -15 4 -50.5t4 -42.5v-1468q66 2 100 2q8 0 33 -6t37 -14v-21q-168 -33 -195 -33q-16 0 -25 3t-12 11.5t-3 16t1.5 26t1.5 31.5l13 727z" />
<glyph unicode="m" horiz-adv-x="643" d="M45 1724q0 9 4 19t4 12q8 -2 36 -1t30 -7q50 -55 103 -153t83 -181q28 31 74 122t80.5 165t40.5 74q9 0 27 -9.5t28 -19.5q1 -27 15 -229q13 -189 12 -291v-15l-19 -1116q0 -2 -5.5 -14.5t-15 -28.5t-18.5 -20h-14q-16 16 -20 38t-1 59.5t3 39.5q-1 46 -1 105q0 89 2 209 q3 199 9 480.5t8 460.5q-13 24 -13 74q1 5 1 11v20q0 44 -6 69q-9 -4 -14 -10t-10 -19t-7 -18q-14 -30 -40 -84.5t-46.5 -99.5t-36.5 -86h-29q-28 36 -87 167t-99 187l33 -1601q-14 -65 -66 -70l-27 1442z" />
<glyph unicode="n" horiz-adv-x="489" d="M61 100v1575q19 19 31 19q5 0 12.5 -1.5t15.5 -3.5t11 -3q21 -43 41 -113.5t29 -110t29 -142t22 -110.5q15 -73 27.5 -161t27 -212.5t21.5 -179.5l45 834q3 67 3 113q0 76 -9 94q14 14 26 14q7 0 20.5 -3t20.5 -3v-363l-24 -401l-7 -823q1 -8 1 -25t-2 -41t-13.5 -41.5 t-30.5 -17.5q-5 0 -13 8t-13 16l-6 9q-21 163 -48 428t-54 476.5t-66 405.5q-1 2 -2 5.5t-4 8t-9 9.5v-1321q-33 -33 -47 -33q-9 0 -13.5 3t-6.5 3q-15 62 -15 88z" />
<glyph unicode="o" horiz-adv-x="524" d="M20 360q0 4 5.5 48.5t11.5 100.5t8 85q1 14 1 37.5t-1 57t-1 57.5t1 38q2 31 19 136t20 167q4 59 18 191.5t19 224.5q4 67 74 122.5t133 55.5q43 0 74.5 -24.5t48 -59t26 -79.5t11.5 -78q1 -22 1 -42v-20l-36 -960q0 -12 -12.5 -104.5t-22.5 -141.5q-13 -61 -65 -120 t-115 -66q-1 -1 -2.5 -6t-10.5 -5h-41q-43 0 -77.5 49t-52 118.5t-26 127t-8.5 90.5zM98 356v-20q0 -54 13 -125q16 -84 39 -135q7 -16 30.5 -27.5t42.5 -11.5q33 0 60 30t43.5 80.5t28.5 102.5t18 111.5t8.5 91t3.5 55.5l31 852q0 15 -3.5 50.5t-11 86.5t-25.5 88t-42 37 q-13 0 -53 -18.5t-58 -38.5q-14 -15 -20.5 -33.5t-9.5 -44t-5 -33.5q-26 -100 -30 -250q-2 -39 -7.5 -91t-10.5 -88t-5 -40z" />
<glyph unicode="p" horiz-adv-x="432" d="M45 1700q0 25 16.5 37t54 20.5t44.5 11.5q53 -4 96.5 -37.5t68 -83t37.5 -101t13 -97.5q0 -54 -28.5 -122t-83.5 -124t-118 -63q-4 -3 -4 -19v-428q0 -5 -3.5 -120.5t-9 -286.5t-7.5 -244q0 -11 -14.5 -26t-28.5 -15q-8 0 -16.5 4t-10.5 4l12 471q1 37 7 126t6 136 l-6 652q0 67 -9 256q-1 5 -8.5 23.5t-7.5 25.5zM131 1677l6 -491q79 57 118.5 123t39.5 153q0 10 -7 44.5t-20 79t-36 78.5t-50 34q-9 0 -51 -21z" />
<glyph unicode="q" horiz-adv-x="610" d="M51 412q0 46 11 132.5t12 94.5q2 18 0 56.5t0 54.5q11 92 20 255t23.5 303.5t44.5 258.5q6 23 53.5 76.5t81.5 60.5q40 12 82 12q45 0 80 -17t56.5 -43.5t36.5 -65t22 -74t9 -78.5q2 -35 2 -61q0 -6 -1 -12q0 -29 -2 -60l-62 -834q-1 -14 -8.5 -53.5t-17 -85.5t-19 -89.5 t-15.5 -73.5l-7 -30q0 -6 5.5 -14t14 -16t20.5 -17t23.5 -17t24.5 -16t21.5 -13t17.5 -10l8 -5q-23 -23 -43 -23q-16 0 -48.5 17t-52.5 30.5t-30 20.5q-29 -33 -77 -59.5t-83 -26.5q-6 0 -29 6t-30 6q-29 0 -37 8q-5 4 -18.5 14.5t-23.5 19t-14 15.5q-11 16 -15.5 35 t-7 45.5t-5.5 42.5q-6 25 -14.5 109.5t-8.5 120.5zM123 356q0 -29 4.5 -71.5t16.5 -99.5t39 -95.5t65 -38.5q6 0 13.5 2.5t10.5 -2.5q25 13 57.5 39.5t32.5 40.5q0 7 -49 86.5t-49 87.5t3 11.5t3 5.5l13 4q19 0 44.5 -24.5t47 -50.5t26.5 -28q11 30 18 56t12 51.5t7 40 t5.5 44.5t5.5 42q8 65 16.5 173t13 183.5t4.5 85.5l19 408q1 17 2 37v17q0 19 -1 49q-1 45 -8 83.5t-19 77.5t-36 61.5t-57 22.5q-26 0 -48.5 -9t-39.5 -27t-31 -37t-24 -48.5t-17 -50.5t-12.5 -54t-8 -48.5t-6 -44t-3.5 -31.5q-6 -46 -12.5 -136t-10.5 -114 q-16 -114 -25 -318q-3 -74 -9 -167.5t-9.5 -151.5t-3.5 -62z" />
<glyph unicode="r" horiz-adv-x="436" d="M37 49v451l18 407l31 361v241v17v36.5t1.5 29.5t5 26t10 19.5t16.5 16.5t24.5 10.5t34 7t45.5 1.5q10 0 90 -51q15 -10 52.5 -81.5t37.5 -119.5v-155q0 -37 -16.5 -93t-45 -114.5t-75.5 -107t-100 -62.5q51 -184 88.5 -366t63 -271.5t79.5 -183.5q13 -19 65.5 -62 t86.5 -43q12 -12 12 -20q-30 -15 -49 -15q-141 0 -229 229q-30 78 -54 195q-17 88 -57 251.5t-51 215.5l-23 -551v-221q0 -19 -32 -51h-21q-8 16 -8 53zM125 924q98 41 151.5 167.5t53.5 260.5q0 84 -34 162t-103 92q-30 -10 -39 -7l-7 -362q-15 -128 -22 -313z" />
<glyph unicode="s" horiz-adv-x="436" d="M33 12q1 1 4.5 5t6 6t7 4t10.5 2q7 0 41 -15.5t41 -15.5q39 0 69.5 13.5t49 32t32 50t19.5 53t9.5 57t3.5 47v36.5q0 220 -77 490t-188 528q-9 22 -15.5 68.5t-6.5 66.5q0 45 13 99.5t38.5 109.5t72.5 92t107 37q40 0 75.5 -37.5t35.5 -69.5q0 -10 -11 -19.5t-22 -9.5 q-15 0 -23.5 13.5t-11.5 30t-16 30t-37 13.5q-36 0 -67.5 -37t-49 -87t-27.5 -92t-10 -59q0 -54 25 -129t69.5 -181.5t65.5 -172.5q2 -6 15 -37t18 -49q107 -402 107 -611q0 -325 -283 -325h-6q-16 0 -25 1t-22 6.5t-22 19t-15 36.5z" />
<glyph unicode="t" horiz-adv-x="464" d="M33 1630q0 5 4 14.5t8 12.5q234 39 371 39q7 0 37 -15v-26q-6 -6 -46 -19.5t-47 -13.5h-79l-13 -10l25 -328v-995q0 -4 -1.5 -54.5t-3.5 -120t-3 -110.5q-27 -22 -39 -22q-18 0 -26.5 18t-9 40.5t1.5 40.5t3 21l6 1256q0 35 -3 73t-9 96.5t-8 78.5q-5 4 -45 4 q-7 0 -36 -3t-36 -3q-12 0 -51 26z" />
<glyph unicode="u" horiz-adv-x="395" d="M33 1616q0 33 39 33q6 0 11 -5t8.5 -11t4.5 -7q1 -13 8 -63.5t7 -57.5v-1261q0 -22 2 -46.5t9 -67t26.5 -70t48.5 -27.5q18 0 31 14t20 38.5t11.5 51t5.5 58.5t1 54.5t-1 44.5t-1 23v207q0 5 -1.5 24.5t-3.5 45t-3 39.5q-2 31 -2 59v14q0 34 2 75t2 42v248q0 8 3 84t3 84 v260q0 193 39 193q11 0 22 -11t17 -22v-1489q0 -39 -16 -86t-49.5 -85t-73.5 -38q-41 0 -72 18t-47.5 50t-27 66.5t-13 76t-2.5 70.5t2 58t2 30q-4 186 -4 380t2 346t2 156q-1 24 1 116q1 55 1 95v45q-1 22 -7.5 82t-6.5 66z" />
<glyph unicode="v" horiz-adv-x="442" d="M18 1677q2 2 4 5t3.5 5t5 3.5t8.5 1.5q6 0 51 -15q30 -152 56 -337.5t55 -431.5t45 -363l78 1024q9 63 9 100q0 12 -1 21q2 2 5 6q18 13 25 14q14 0 33 -14.5t19 -26.5q0 -5 -5.5 -43t-12 -88t-9.5 -76q-2 -16 -3 -51.5t-3 -56.5q-2 -32 -12 -149.5t-13 -180.5 q-2 -48 -10 -163t-12 -179q-3 -42 -10 -121t-10.5 -125t-5.5 -128v-36q0 -58 5 -96q1 -13 -4.5 -46.5t-5.5 -55.5v-62q-2 -9 -16.5 -22t-24.5 -13q-45 0 -76 394q-21 248 -67 653q-36 339 -101 653z" />
<glyph unicode="w" horiz-adv-x="608" d="M35 1655v20q3 0 8 3t14 3q5 0 11.5 -3.5t15 -9.5t10.5 -7q24 -122 43 -316.5t41 -505.5t31 -413q4 4 6 10q4 56 14.5 160t16.5 174q2 10 10 21.5t16 11.5q22 0 42 -15.5t20 -29.5v-178q0 -5 5.5 -49.5t12.5 -106.5t10 -102q16 36 19 77q6 69 17.5 201.5t19.5 224t8 97.5 l80 784q1 0 13 6t20 6q17 0 28 -17.5t11 -25.5l-164 -1624q0 -13 -7 -42t-16 -44q-1 0 -11.5 -5t-17.5 -9h-20q-20 53 -29.5 119.5t-15.5 153.5t-12 130l-9 11l-22 -394q-1 -13 -11 -22.5t-18 -13t-12 -3.5q-19 0 -29 15q-14 105 -37 355t-28 400q-5 133 -15.5 264t-25 280 t-21.5 231q-2 21 -7.5 63t-10 75.5t-4.5 39.5z" />
<glyph unicode="x" horiz-adv-x="577" d="M27 -12v69l213 1018l-152 629q1 1 5.5 7.5t9.5 9.5t12 3q20 0 43 -14q100 -391 121 -467l133 522q18 0 44 -14t21 -35l-151 -645l225 -1014q-10 -34 -41 -34q-20 0 -31 14q-39 156 -103 443.5t-91 402.5q-8 -8 -11 -17q-15 -76 -81 -377l-27 -155q-28 -155 -55.5 -257 t-51.5 -102q-8 0 -17.5 5.5t-14.5 7.5z" />
<glyph unicode="y" horiz-adv-x="489" d="M-2 49v31l14 14q23 -6 39.5 -24.5t24.5 -37t24.5 -33.5t40.5 -15q6 0 29.5 6t30.5 6q45 0 82 52.5t39 90.5q7 113 10 189l12 628q2 17 5.5 72t6.5 86l-4 41q-61 -61 -108 -61q-29 0 -62 15t-49 42q-17 30 -40 99.5t-23 111.5q0 60 14 242q0 1 0.5 2.5t1.5 2.5t4.5 2 t7.5 1q17 0 31 -24.5t14 -39.5v-205q0 -46 32.5 -117t66.5 -71q29 0 53 40t36 91.5t18 93.5t5 52q-1 22 2 54.5t8 77t7 66.5q2 0 10.5 3t15.5 3q26 -13 37 -26q1 -18 3 -50t3.5 -56.5t1.5 -30.5q0 -3 -4.5 -71.5t-10 -161.5t-7.5 -150q-7 -236 -7 -397q0 -107 3 -181v-20 v-44q-2 -44 -2 -59v-71.5t-1.5 -83t-6.5 -69.5t-17 -78t-31 -62q-10 -17 -66.5 -50.5t-84.5 -33.5q-4 0 -38.5 -6.5t-43.5 -6.5q-51 0 -89 38.5t-38 82.5z" />
<glyph unicode="z" horiz-adv-x="462" d="M29 55q0 7 10 61.5t27.5 142t35.5 169.5q8 39 29 137.5t38 176.5t32 137q74 278 92 348q76 296 76 305q0 11 -1.5 17t-6 8.5t-7.5 3t-10.5 -0.5t-11.5 -1l-137 -13q-16 0 -34.5 2t-39.5 11.5t-21 25.5q0 17 15 27h21q48 0 138 6l111 8q57 0 57 -67q0 -8 -15 -81 t-39.5 -178t-45.5 -178q-19 -69 -38.5 -151t-44 -192.5t-32.5 -143.5q-51 -217 -71 -314.5t-29.5 -158t-20.5 -117.5q29 0 79.5 3.5t90.5 7t43 3.5h8.5h8t7 -1t8 -3t8.5 -6t12.5 -10t15.5 -14q-17 -17 -20 -19q-45 -9 -127.5 -17.5t-133.5 -8.5q-45 0 -61 18t-16 57z" />
<glyph unicode="&#x2000;" horiz-adv-x="913" />
<glyph unicode="&#x2001;" horiz-adv-x="1827" />
<glyph unicode="&#x2002;" horiz-adv-x="913" />
<glyph unicode="&#x2003;" horiz-adv-x="1827" />
<glyph unicode="&#x2004;" horiz-adv-x="609" />
<glyph unicode="&#x2005;" horiz-adv-x="456" />
<glyph unicode="&#x2006;" horiz-adv-x="304" />
<glyph unicode="&#x2007;" horiz-adv-x="304" />
<glyph unicode="&#x2008;" horiz-adv-x="228" />
<glyph unicode="&#x2009;" horiz-adv-x="365" />
<glyph unicode="&#x200a;" horiz-adv-x="101" />
<glyph unicode="&#x202f;" horiz-adv-x="365" />
<glyph unicode="&#x205f;" horiz-adv-x="456" />
<glyph unicode="&#xe000;" horiz-adv-x="1761" d="M0 0v1761h1761v-1761h-1761z" />
</font>
</defs>
</svg>
