<?xml version="1.0" encoding="utf-8"?>
<!-- Generator: Adobe Illustrator 15.0.0, SVG Export Plug-In . SVG Version: 6.00 Build 0)  -->
<!DOCTYPE svg PUBLIC "-//W3C//DTD SVG 1.1//EN" "http://www.w3.org/Graphics/SVG/1.1/DTD/svg11.dtd">
<svg version="1.1" id="Layer_1" xmlns:inkpad="http://taptrix.com/inkpad/svg_extensions"
	 xmlns="http://www.w3.org/2000/svg" xmlns:xlink="http://www.w3.org/1999/xlink" x="0px" y="0px" width="618.5px" height="200px"
	 viewBox="0 0 618.5 200" enable-background="new 0 0 618.5 200" xml:space="preserve">
<g id="Layer" inkpad:layerName="Layer 1">
	<path fill="#E13636" d="M165.746,158.265c0.453-0.028-23.814-11.392-22.357-12.409c1.266-0.885,6.449-4.29,6.807-4.47
		c2.255-1.126,1.693-0.763,1.548-0.763c-0.013,0,3.087,0.377,6.149,0.377c4.722,0,9.527,0.263,14.242,0
		c1.873-0.104,13.858-0.767,13.858-0.767s-5.067,5.385-6.015,6.095"/>
	<path fill="#880000" d="M159.704,171.791c1.413-1.276,19.008,11.728,20.237,11.297c2.42-0.848,6.5-4.546,6.877-5.572
		c0.354-0.957,0.479,0.023,0.461-7.516c-0.018-6.822,0.584-13.273-0.459-20.062c-0.233-1.516-0.875-9.745-0.875-9.745
		s-5.562,4.855-6.121,6.255"/>
	<path fill="#E13636" d="M104.468,157.213c0.453-0.027-25.229-9.858-23.772-10.877c1.266-0.885,7.865-5.822,8.223-6.001
		c2.254-1.127,1.693-0.764,1.547-0.764c-0.013,0,3.087,0.377,6.149,0.377c4.722,0,9.529,0.262,14.243,0
		c1.873-0.104,14.289-0.801,14.289-0.801s-5.066,5.884-6.014,6.594"/>
	<path fill="#880000" d="M97.788,170.352c1.413-1.276,20.058,13.117,21.285,12.688c2.421-0.848,6.325-4.938,6.704-5.968
		c0.353-0.957-0.395-0.973-0.413-8.512c-0.017-6.823,0.821-13.157-0.224-19.945c-0.233-1.515,0.058-9.487,0.058-9.487
		s-5.386,4.955-5.946,6.354"/>
	<path fill="#E13636" d="M40.639,158.291c0.453-0.027-23.815-11.391-22.358-12.407c1.266-0.886,6.451-4.291,6.808-4.471
		c2.254-1.128,1.693-0.763,1.547-0.763c-0.013,0,3.087,0.376,6.149,0.376c4.722,0,9.529,0.263,14.244,0
		c1.872-0.104,14.41-1.064,14.41-1.064s-5.067,5.387-6.013,6.096"/>
	<path fill="#880000" d="M35.458,171.087c1.413-1.276,19.113,12.33,20.34,11.901c2.422-0.848,7.27-4.153,7.649-5.182
		c0.353-0.957-0.394-0.974-0.413-8.513c-0.017-6.822,0.585-13.273-0.459-20.062c-0.233-1.515-1.102-9.366-1.102-9.366
		s-5.859,5.31-6.419,6.706"/>
	<path fill="#E13636" d="M164.662,97.287c0.451-0.028-23.814-11.391-22.357-12.409c1.266-0.884,6.45-4.289,6.807-4.469
		c2.255-1.127,1.693-0.764,1.548-0.764c-0.013,0,3.087,0.377,6.149,0.377c4.721,0,9.528,0.262,14.242,0
		c1.873-0.104,14.936-1.086,14.936-1.086s-5.066,5.385-6.014,6.096"/>
	<path fill="#880000" d="M159.876,110.19c1.413-1.277,18.603,12.366,19.831,11.937c2.421-0.848,5.533-4.566,6.332-5.316
		c1.734-1.624,1.432-0.871,1.413-8.409c-0.017-6.824,0.584-13.275-0.459-20.062c-0.232-1.516-0.964-9.459-0.964-9.459
		s-4.961,4.23-5.521,5.629"/>
	<path fill="#E13636" d="M102.535,96.597c0.453-0.027-23.815-11.391-22.358-12.407c1.266-0.886,6.45-4.291,6.808-4.47
		c2.254-1.127,1.693-0.762,1.547-0.762c-0.013,0,3.087,0.377,6.148,0.377c4.723,0,9.53,0.262,14.244,0
		c1.873-0.104,14.824-0.994,14.824-0.994s-5.066,5.385-6.014,6.095"/>
	<path fill="#880000" d="M97.467,110.292c1.412-1.275,20.428,12.469,21.656,12.038c2.422-0.848,5.954-4.288,6.333-5.316
		c0.353-0.957-0.394-0.975-0.412-8.512c-0.017-6.823,0.585-13.274-0.46-20.063c-0.232-1.514-0.829-10.146-0.829-10.146
		s-5.225,4.159-5.784,5.557"/>
	<path fill="#E13636" d="M39.217,98.628c0.452-0.027-23.895-10.937-22.438-11.955c1.266-0.885,6.531-4.744,6.888-4.924
		c2.254-1.125,1.694-0.764,1.547-0.764c-0.013,0,3.087,0.377,6.148,0.377c4.723,0,9.53,0.262,14.244,0
		c1.873-0.104,13.5-1.411,13.5-1.411s-4.546,5.666-5.494,6.376"/>
	<path fill="#880000" d="M33.373,111.158c1.413-1.277,20.272,11.38,21.501,10.95c2.421-0.848,6.109-3.2,6.488-4.229
		c0.353-0.957-0.394-0.974-0.413-8.512c-0.017-6.823,0.584-13.274-0.46-20.063c-0.233-1.514-1.496-9.314-1.496-9.314
		s-3.672,4.033-4.232,5.432"/>
	<path fill="#E13636" d="M165.07,34.042c0.453-0.027-23.813-11.391-22.357-12.408c1.268-0.885,6.45-4.291,6.809-4.469
		c2.254-1.128,1.693-0.765,1.547-0.765c-0.014,0,3.087,0.377,6.148,0.377c4.723,0,9.529,0.263,14.243,0
		c1.873-0.104,15.25-0.731,15.25-0.731s-5.067,5.385-6.015,6.096"/>
	<path fill="#880000" d="M160.417,47.634c1.414-1.277,20.429,12.467,21.656,12.037c2.422-0.847,5.954-4.289,6.333-5.316
		c0.353-0.958-0.395-0.975-0.412-8.512c-0.018-6.824,0.584-13.275-0.46-20.063c-0.231-1.515-0.862-9.666-0.862-9.666
		s-4.949,4.19-5.509,5.588"/>
	<path fill="#E13636" d="M102.82,33.153c0.453-0.027-23.234-11.023-21.777-12.042c1.266-0.884,5.87-4.657,6.228-4.835
		c2.254-1.127,1.693-0.764,1.547-0.764c-0.013,0,3.087,0.377,6.149,0.377c4.722,0,9.529,0.263,14.243,0
		c1.873-0.104,15.567,0.66,15.567,0.66s-5.066,5.385-6.014,6.095"/>
	<path fill="#880000" d="M97.681,47.285c1.413-1.276,19.881,12.058,21.109,11.628c2.422-0.847,5.954-4.289,6.333-5.316
		c0.354-0.957,0.152-0.562,0.134-8.102c-0.017-6.824,0.585-13.275-0.459-20.062c-0.233-1.516-0.116-8.79-0.116-8.79
		s-4.762,4.19-5.32,5.588"/>
	<path fill="#B50000" d="M80.809,22.203c1.307,4.89,0.332,11.929-0.429,16.873c-1.071,6.964-0.283,19.613-0.021,19.875
		c1.267,1.267,19.02,0.777,21.845,0.694c9.723-0.285,16.239,0.594,16.794-1.068c1.038-3.111-0.766-20.182-0.188-25.393
		c0.07-0.629,0.858-11.219,0.832-11.219c-1.188,0-17.983-1.73-25.041-1.73C92.395,20.235,79.164,18.913,80.809,22.203z"/>
	<path fill="#B50000" d="M142.114,22.938c-0.663,8.688,3.721,18.44,2.067,27.062c-3.015,15.721,1.281,8.248,17.291,9.772
		c1.834,0.175,19.254,1.543,20.713-0.382c2.707-3.569-1.554-21.336-0.793-28.185c0.094-0.848,0.625-9.391-0.776-9.653
		c-2.688-0.502-23.445-0.015-27.789,0.256C150.656,21.944,140.229,20.675,142.114,22.938z"/>
	<path fill="#B50000" d="M16.761,88.526c1.788,5.006,0.79,10.436,0.752,15.599c-0.073,9.926-0.805,15.938,0.395,17.329
		c1.055,1.222,8.404,0.364,21.45,0.23c1.095-0.011,15.96,1.16,16.452,0.176c1.058-2.115,0.346-37.282-0.671-37.281
		c-5.51,0.006-17.863,1.235-21.088,1.504C30.261,86.398,14.056,83.566,16.761,88.526z"/>
	<path fill="#B50000" d="M79.08,85.007c1.172,5.635-0.519,38.584-0.3,38.662c1.858,0.683,25.964,0.377,31.948,0.377
		c3.682,0,7.773-1.048,8.564-2.05c0.651-0.823,0.231-3.145-0.302-7.946c-1.03-9.271,0.461-10.38-0.958-19.605
		c-0.118-0.766,0.657-10.175,0.106-10.725c-0.578-0.578-12.326,1.416-16.431,1.613C93.678,85.716,79.19,82.044,79.08,85.007z"/>
	<path fill="#B50000" d="M142.49,87.587c3.843,19.957-1.492,30.623,0.914,34.191c1.777,2.637,8.377,0.388,22.953,0.388
		c3.428,0,10.974,1.984,13.692-0.733c0.546-0.546,0.185-19.982,0.278-21.688c0.102-1.814,1.3-14.049,0.178-15.279
		c-1.646-1.807-18.287,0.489-23.168,0.489c-0.645,0-15.398-0.161-15.411,0C141.861,85.849,142.302,86.71,142.49,87.587z"/>
	<path fill="#B50000" d="M16.896,147.462c2.442,2.747-0.135,26.89,0.751,35.597c0.167,1.64,4.737-0.045,6.36-0.331
		c6.642-1.172,11.221-0.798,17.937-0.798c4.465,0,9.466,1.911,13.872,1.109c1.378-0.25,1.154-33.904-0.009-36.518
		c-1.051-2.358-11.998-0.54-24.582-0.541C29.073,145.98,18.909,144.197,16.896,147.462z"/>
	<path fill="#B50000" d="M80.24,147.032c2.906,10.445-2.392,33.876,0.687,36.657c2.045,1.849,18.401,0.119,21.157,0.119
		c4.41,0,8.441-0.693,12.779-1.127c0.755-0.075,4.365,0.478,4.376,0.244c0.267-6.206-1.378-14.355-0.531-19.017
		c0.302-1.663,1.149-16.722,0.75-17.952c-0.749-2.296-9.466-0.323-14.268-0.089C96.008,146.317,87.776,144.458,80.24,147.032z"/>
	<path fill="#B50000" d="M142.688,146.611c1.412,3.911-2.43,35.93,0.224,36.498c2.792,0.597,34.968,1.518,37.052-0.023
		c2.471-1.824-0.854-14.855-0.854-18.661c0-2.718,2.875-16.062,0.798-18.14c-0.927-0.926-14.294,0.74-15.427,0.772
		C154.986,147.32,146.936,143.844,142.688,146.611z"/>
	<path fill="#E13636" d="M41.238,35.419c0.453-0.027-23.814-11.391-22.358-12.408c1.266-0.885,6.45-4.291,6.808-4.469
		c2.254-1.127,1.693-0.764,1.547-0.764c-0.013,0,3.087,0.377,6.149,0.377c4.722,0,9.529,0.262,14.243,0
		c1.873-0.104,13.109-1.391,13.109-1.391s-4.614,5.818-5.562,6.527"/>
	<path fill="#880000" d="M34.323,48.322c1.413-1.276,20.428,12.468,21.656,12.039c2.422-0.849,5.954-4.289,6.333-5.317
		c0.353-0.957-0.394-0.974-0.412-8.512c-0.017-6.824,0.585-13.273-0.459-20.062c-0.233-1.516-0.719-9.696-0.719-9.696
		s-5.055,5.094-5.614,6.491"/>
	<path fill="#B50000" d="M18.963,23.38c-0.511,11.325-0.836,19.907,0.197,31.275c0.081,0.896-0.787,5.781-0.598,5.971
		c0.36,0.359,2.03-0.361,2.189-0.398c6.127-1.414,11.639,0.316,17.901,0.316c2.293,0,15.927,0.602,17.035-0.138
		c0.3-0.2-0.958-14.804-1.405-21.506c-0.154-2.3,1.538-15.72,0.796-15.72c-2.207,0-4.363,0.975-6.566,1.195
		c-8.111,0.811-17.829,0.566-25.668-1.394C21.323,22.602,19.668,21.97,18.963,23.38z"/>
</g>
<text transform="matrix(1 0 0 1 197 183.8027)" font-family="'InTheKnow-Regular'" font-size="194.0005">Hash MEAT</text>
</svg>
