<?xml version="1.0" encoding="utf-8"?>
<!-- Generator: Adobe Illustrator 15.0.0, SVG Export Plug-In . SVG Version: 6.00 Build 0)  -->
<!DOCTYPE svg PUBLIC "-//W3C//DTD SVG 1.1//EN" "http://www.w3.org/Graphics/SVG/1.1/DTD/svg11.dtd">
<svg version="1.1" id="Layer_1" xmlns:inkpad="http://taptrix.com/inkpad/svg_extensions"
	 xmlns="http://www.w3.org/2000/svg" xmlns:xlink="http://www.w3.org/1999/xlink" x="0px" y="0px" width="618.5px" height="200px"
	 viewBox="196 206 618.5 200" enable-background="new 196 206 618.5 200" xml:space="preserve">
<g id="Layer" inkpad:layerName="Layer 1">
	<path fill="#E13636" d="M363.746,362.945c0.453-0.028-23.814-11.391-22.358-12.409c1.266-0.885,6.45-4.29,6.808-4.47
		c2.254-1.126,1.693-0.762,1.547-0.762c-0.013,0,3.087,0.377,6.149,0.377c4.722,0,9.528,0.262,14.243,0
		c1.873-0.104,13.858-0.767,13.858-0.767s-5.067,5.385-6.014,6.095"/>
	<path fill="#880000" d="M357.704,376.472c1.413-1.277,19.008,11.727,20.237,11.297c2.421-0.848,6.5-4.546,6.878-5.573
		c0.353-0.957,0.479,0.024,0.46-7.515c-0.017-6.823,0.585-13.274-0.459-20.062c-0.233-1.515-0.875-9.745-0.875-9.745
		s-5.561,4.856-6.121,6.255"/>
	<path fill="#E13636" d="M302.468,361.894c0.453-0.028-25.229-9.859-23.772-10.877c1.266-0.885,7.865-5.823,8.223-6.001
		c2.254-1.127,1.693-0.764,1.547-0.764c-0.013,0,3.087,0.377,6.149,0.377c4.722,0,9.529,0.262,14.243,0
		c1.873-0.104,14.289-0.801,14.289-0.801s-5.067,5.884-6.014,6.594"/>
	<path fill="#880000" d="M295.788,375.032c1.413-1.276,20.057,13.117,21.285,12.688c2.421-0.848,6.325-4.939,6.704-5.968
		c0.353-0.957-0.394-0.973-0.413-8.512c-0.017-6.823,0.821-13.157-0.224-19.945c-0.233-1.515,0.058-9.487,0.058-9.487
		s-5.386,4.955-5.946,6.354"/>
	<path fill="#E13636" d="M238.639,362.972c0.453-0.028-23.815-11.391-22.358-12.408c1.266-0.885,6.451-4.291,6.808-4.47
		c2.254-1.128,1.693-0.763,1.547-0.763c-0.013,0,3.087,0.376,6.149,0.376c4.722,0,9.529,0.263,14.244,0
		c1.872-0.103,14.41-1.064,14.41-1.064s-5.067,5.386-6.013,6.095"/>
	<path fill="#880000" d="M233.458,375.768c1.413-1.277,19.113,12.33,20.34,11.901c2.422-0.848,7.27-4.153,7.649-5.182
		c0.353-0.957-0.394-0.973-0.413-8.512c-0.017-6.823,0.585-13.274-0.459-20.062c-0.233-1.515-1.102-9.366-1.102-9.366
		s-5.859,5.309-6.419,6.706"/>
	<path fill="#E13636" d="M362.662,301.968c0.452-0.028-23.815-11.391-22.358-12.409c1.266-0.884,6.451-4.29,6.808-4.469
		c2.254-1.127,1.693-0.764,1.547-0.764c-0.013,0,3.087,0.377,6.149,0.377c4.722,0,9.529,0.262,14.243,0
		c1.873-0.104,14.935-1.086,14.935-1.086s-5.066,5.385-6.013,6.096"/>
	<path fill="#880000" d="M357.876,314.871c1.413-1.277,18.603,12.366,19.831,11.937c2.421-0.848,5.533-4.567,6.332-5.317
		c1.734-1.624,1.432-0.871,1.413-8.409c-0.017-6.824,0.584-13.275-0.459-20.063c-0.232-1.515-0.963-9.458-0.963-9.458
		s-4.961,4.23-5.521,5.629"/>
	<path fill="#E13636" d="M300.535,301.278c0.453-0.028-23.815-11.391-22.358-12.408c1.266-0.885,6.45-4.291,6.808-4.469
		c2.254-1.127,1.693-0.763,1.547-0.763c-0.013,0,3.087,0.377,6.148,0.377c4.723,0,9.53,0.262,14.244,0
		c1.873-0.104,14.824-0.994,14.824-0.994s-5.066,5.385-6.013,6.095"/>
	<path fill="#880000" d="M295.467,314.973c1.412-1.276,20.428,12.468,21.656,12.038c2.422-0.848,5.954-4.288,6.333-5.317
		c0.353-0.957-0.394-0.974-0.412-8.511c-0.017-6.824,0.585-13.275-0.46-20.064c-0.233-1.514-0.829-10.147-0.829-10.147
		s-5.225,4.16-5.784,5.557"/>
	<path fill="#E13636" d="M237.217,303.309c0.452-0.028-23.895-10.937-22.438-11.955c1.266-0.885,6.531-4.745,6.888-4.924
		c2.254-1.126,1.694-0.764,1.547-0.764c-0.013,0,3.087,0.377,6.148,0.377c4.723,0,9.53,0.262,14.244,0
		c1.873-0.104,13.5-1.411,13.5-1.411s-4.546,5.666-5.494,6.376"/>
	<path fill="#880000" d="M231.373,315.839c1.413-1.277,20.272,11.38,21.501,10.95c2.421-0.848,6.109-3.2,6.488-4.229
		c0.353-0.957-0.394-0.974-0.413-8.512c-0.017-6.823,0.584-13.275-0.46-20.064c-0.233-1.514-1.496-9.314-1.496-9.314
		s-3.672,4.033-4.232,5.431"/>
	<path fill="#E13636" d="M363.071,238.723c0.453-0.028-23.814-11.391-22.358-12.409c1.267-0.884,6.45-4.29,6.808-4.469
		c2.254-1.127,1.694-0.764,1.547-0.764c-0.013,0,3.087,0.377,6.149,0.377c4.722,0,9.529,0.262,14.243,0
		c1.873-0.104,15.25-0.731,15.25-0.731s-5.067,5.385-6.014,6.095"/>
	<path fill="#880000" d="M358.417,252.314c1.414-1.277,20.428,12.467,21.656,12.038c2.422-0.847,5.954-4.289,6.333-5.317
		c0.353-0.958-0.394-0.974-0.412-8.512c-0.018-6.824,0.584-13.275-0.46-20.063c-0.232-1.515-0.862-9.666-0.862-9.666
		s-4.949,4.19-5.509,5.588"/>
	<path fill="#E13636" d="M300.82,237.834c0.453-0.028-23.234-11.024-21.777-12.042c1.266-0.884,5.87-4.657,6.228-4.835
		c2.254-1.127,1.693-0.763,1.547-0.763c-0.013,0,3.087,0.377,6.149,0.377c4.722,0,9.529,0.262,14.243,0
		c1.873-0.104,15.568,0.659,15.568,0.659s-5.067,5.385-6.014,6.095"/>
	<path fill="#880000" d="M295.681,251.966c1.413-1.277,19.881,12.058,21.109,11.628c2.422-0.847,5.954-4.289,6.333-5.316
		c0.353-0.958,0.152-0.563,0.134-8.102c-0.017-6.824,0.585-13.275-0.459-20.063c-0.233-1.515-0.117-8.79-0.117-8.79
		s-4.761,4.19-5.32,5.588"/>
	<path fill="#B50000" d="M278.809,226.884c1.307,4.89,0.332,11.929-0.429,16.873c-1.071,6.964-0.283,19.613-0.021,19.875
		c1.267,1.267,19.02,0.777,21.845,0.694c9.723-0.285,16.24,0.594,16.794-1.068c1.038-3.112-0.765-20.182-0.187-25.393
		c0.07-0.629,0.858-11.219,0.832-11.219c-1.189,0-17.984-1.73-25.041-1.73C290.395,224.916,277.164,223.594,278.809,226.884z"/>
	<path fill="#B50000" d="M340.114,227.618c-0.663,8.688,3.721,18.44,2.067,27.062c-3.014,15.721,1.282,8.248,17.291,9.772
		c1.835,0.175,19.254,1.543,20.713-0.381c2.707-3.57-1.553-21.337-0.792-28.185c0.094-0.848,0.625-9.391-0.777-9.653
		c-2.688-0.502-23.445-0.015-27.789,0.256C348.656,226.625,338.229,225.355,340.114,227.618z"/>
	<path fill="#B50000" d="M214.761,293.207c1.788,5.006,0.79,10.436,0.752,15.599c-0.073,9.925-0.805,15.937,0.395,17.329
		c1.055,1.221,8.404,0.364,21.45,0.23c1.095-0.011,15.96,1.16,16.452,0.176c1.058-2.115,0.346-37.282-0.671-37.281
		c-5.51,0.005-17.863,1.235-21.088,1.504C228.261,291.079,212.056,288.247,214.761,293.207z"/>
	<path fill="#B50000" d="M277.08,289.688c1.172,5.634-0.519,38.583-0.3,38.662c1.858,0.682,25.964,0.377,31.948,0.377
		c3.682,0,7.773-1.048,8.564-2.05c0.651-0.823,0.231-3.145-0.302-7.947c-1.03-9.27,0.461-10.379-0.958-19.605
		c-0.118-0.765,0.657-10.175,0.107-10.725c-0.578-0.578-12.326,1.417-16.431,1.613C291.678,290.396,277.19,286.725,277.08,289.688z"
		/>
	<path fill="#B50000" d="M340.49,292.267c3.843,19.958-1.492,30.624,0.914,34.192c1.777,2.637,8.377,0.388,22.954,0.388
		c3.427,0,10.973,1.984,13.692-0.734c0.545-0.546,0.184-19.982,0.278-21.687c0.102-1.814,1.3-14.049,0.178-15.28
		c-1.647-1.806-18.287,0.49-23.168,0.49c-0.645,0-15.399-0.161-15.411,0C339.862,290.53,340.302,291.39,340.49,292.267z"/>
	<path fill="#B50000" d="M214.896,352.143c2.442,2.747-0.135,26.889,0.751,35.596c0.167,1.64,4.737-0.045,6.36-0.331
		c6.642-1.172,11.221-0.798,17.937-0.798c4.465,0,9.466,1.911,13.872,1.11c1.378-0.25,1.154-33.905-0.009-36.518
		c-1.051-2.358-11.998-0.54-24.582-0.541C227.073,350.661,216.909,348.878,214.896,352.143z"/>
	<path fill="#B50000" d="M278.24,351.713c2.906,10.445-2.392,33.876,0.687,36.657c2.045,1.849,18.401,0.119,21.157,0.119
		c4.41,0,8.441-0.693,12.779-1.127c0.755-0.075,4.366,0.478,4.376,0.244c0.267-6.206-1.378-14.355-0.531-19.016
		c0.302-1.663,1.15-16.722,0.75-17.952c-0.749-2.296-9.466-0.324-14.268-0.089C294.008,350.998,285.776,349.139,278.24,351.713z"/>
	<path fill="#B50000" d="M340.688,351.292c1.412,3.911-2.43,35.93,0.223,36.498c2.792,0.597,34.968,1.518,37.052-0.023
		c2.47-1.825-0.854-14.856-0.854-18.661c0-2.718,2.875-16.062,0.798-18.14c-0.926-0.926-14.293,0.74-15.427,0.772
		C352.987,352.001,344.936,348.524,340.688,351.292z"/>
	<path fill="#E13636" d="M239.238,240.1c0.453-0.028-23.814-11.391-22.358-12.409c1.266-0.884,6.45-4.29,6.808-4.469
		c2.254-1.126,1.693-0.763,1.547-0.763c-0.013,0,3.087,0.377,6.149,0.377c4.722,0,9.529,0.262,14.243,0
		c1.873-0.104,13.109-1.39,13.109-1.39s-4.614,5.817-5.562,6.527"/>
	<path fill="#880000" d="M232.323,253.003c1.413-1.276,20.428,12.468,21.656,12.039c2.422-0.848,5.954-4.289,6.333-5.317
		c0.353-0.958-0.394-0.974-0.412-8.512c-0.017-6.824,0.585-13.274-0.459-20.063c-0.233-1.515-0.719-9.696-0.719-9.696
		s-5.055,5.094-5.614,6.492"/>
	<path fill="#B50000" d="M216.963,228.061c-0.511,11.325-0.836,19.907,0.197,31.275c0.081,0.896-0.787,5.781-0.598,5.97
		c0.36,0.36,2.03-0.361,2.189-0.398c6.127-1.414,11.639,0.316,17.901,0.316c2.293,0,15.927,0.602,17.035-0.137
		c0.3-0.2-0.958-14.804-1.405-21.506c-0.154-2.3,1.538-15.719,0.796-15.719c-2.207,0-4.363,0.974-6.566,1.194
		c-8.111,0.811-17.829,0.567-25.668-1.393C219.323,227.282,217.668,226.651,216.963,228.061z"/>
</g>
<text transform="matrix(1 0 0 1 395 388.4834)" font-family="'InTheKnow-Regular'" font-size="194.0005">Hash MEAT</text>
</svg>
